<?xml version="1.0" standalone="no"?>
<!DOCTYPE svg PUBLIC "-//W3C//DTD SVG 20010904//EN"
 "http://www.w3.org/TR/2001/REC-SVG-20010904/DTD/svg10.dtd">
<svg version="1.0" xmlns="http://www.w3.org/2000/svg"
 width="86.000000pt" height="86.000000pt" viewBox="0 0 86.000000 86.000000"
 preserveAspectRatio="xMidYMid meet">
<metadata>
Created by potrace 1.11, written by Peter Selinger 2001-2013
</metadata>
<g transform="translate(0.000000,86.000000) scale(0.100000,-0.100000)"
fill="#000000" stroke="none">
<path d="M340 850 c0 -5 -13 -10 -30 -10 -16 0 -30 -4 -30 -10 0 -5 -13 -10
-28 -10 -16 0 -34 -8 -42 -20 -8 -11 -20 -20 -27 -20 -17 0 -103 -86 -103
-103 0 -7 -9 -19 -20 -27 -12 -8 -20 -26 -20 -42 0 -15 -4 -28 -10 -28 -5 0
-10 -13 -10 -30 0 -16 -4 -30 -10 -30 -6 0 -10 -37 -10 -90 0 -53 4 -90 10
-90 6 0 10 -13 10 -30 0 -16 5 -30 10 -30 6 0 10 -13 10 -28 0 -16 8 -34 20
-42 11 -8 20 -20 20 -27 0 -17 86 -103 103 -103 7 0 19 -9 27 -20 8 -12 26
-20 42 -20 15 0 28 -4 28 -10 0 -5 14 -10 30 -10 17 0 30 -4 30 -10 0 -6 37
-10 90 -10 53 0 90 4 90 10 0 6 14 10 30 10 17 0 30 5 30 10 0 6 13 10 28 10
16 0 34 8 42 20 8 11 20 20 27 20 17 0 103 86 103 103 0 7 9 19 20 27 12 8 20
26 20 42 0 15 5 28 10 28 6 0 10 14 10 30 0 17 5 30 10 30 6 0 10 37 10 90 0
53 -4 90 -10 90 -5 0 -10 14 -10 30 0 17 -4 30 -10 30 -5 0 -10 13 -10 28 0
16 -8 34 -20 42 -11 8 -20 20 -20 27 0 8 -20 34 -45 58 -24 25 -50 45 -58 45
-7 0 -19 9 -27 20 -8 12 -26 20 -42 20 -15 0 -28 5 -28 10 0 6 -13 10 -30 10
-16 0 -30 5 -30 10 0 6 -37 10 -90 10 -53 0 -90 -4 -90 -10z"/>
</g>
</svg>
